<?xml version="1.0" encoding="utf-8"?>
<!-- Generator: Adobe Illustrator 16.0.0, SVG Export Plug-In . SVG Version: 6.00 Build 0)  -->
<!DOCTYPE svg PUBLIC "-//W3C//DTD SVG 1.1//EN" "http://www.w3.org/Graphics/SVG/1.1/DTD/svg11.dtd">
<svg version="1.1" xmlns="http://www.w3.org/2000/svg" xmlns:xlink="http://www.w3.org/1999/xlink" x="0px" y="0px" width="255px"
	 height="130px" viewBox="0 0 255 130" enable-background="new 0 0 255 130" xml:space="preserve">
<g id="фон">
	<rect y="0" fill="#E11D1E" width="255" height="130"/>
	<rect x="224.384" y="0" display="none" fill="none" stroke="#F9F9F9" stroke-miterlimit="10" width="30.616" height="93"/>
	<rect x="0.362" y="0" display="none" fill="none" stroke="#F9F9F9" stroke-miterlimit="10" width="30.616" height="93"/>
</g>
<g id="лого_copy" display="none">
	<g id="текст_1_" display="inline">
		<g id="_x32__строчка_1_">
			<path id="P_1_" fill="#FFFFFF" d="M47.948,74.744c0,3.586-4.142,4.014-8.071,4.014h-1.889v2.972h2.377v2.631h-8.897v-2.631h2.123
				v-8.068h-2.208v-2.442h10.235C44.938,71.218,47.948,71.586,47.948,74.744z M39.962,76.527c3.101,0,3.484-0.299,3.484-1.444
				c0-1.338-0.869-1.422-1.976-1.422h-3.481v2.866H39.962z"/>
			<path id="U_1_" fill="#FFFFFF" d="M49.669,71.218h8.896v2.442h-2.291v6.03c0,1.592,1.061,2.313,3.587,2.313
				c1.888,0,3.736,0,3.736-2.335v-6.007H61.39v-2.442h7.878v2.442h-2.295V80.2c0,1.984-1.659,4.586-7.222,4.586
				c-5.537,0-7.875-2.62-7.875-4.586v-6.539h-2.208V71.218z"/>
			<path id="B_1_" fill="#FFFFFF" d="M88.342,74.744c0,0.869-0.38,1.549-0.998,2.079c1.404,0.553,2.274,1.596,2.274,3.463
				c0,3.714-4.224,4.075-8.068,4.075h-9.772v-2.631h2.208v-8.068h-2.208v-2.442h10.235C85.332,71.218,88.342,71.586,88.342,74.744z
				 M83.249,76.228c0.318-0.105,0.591-0.401,0.591-1.145c0-1.338-0.869-1.422-1.976-1.422h-3.478v2.567H83.249z M81.633,81.729
				c2.717,0,3.226-0.383,3.226-1.443c0-1.444-0.679-1.636-3.479-1.636h-2.994v3.08H81.633z"/>
			<path id="L_1_" fill="#FFFFFF" d="M92.916,81.729h2.207v-8.068h-2.207v-2.442h8.896v2.442h-2.295v8.068h7.049v-2.485h2.928v5.117
				H92.916V81.729z"/>
			<path id="I_5_" fill="#FFFFFF" d="M111.221,81.729h2.208v-8.068h-2.208v-2.442h8.897v2.442h-2.295v8.068h2.295v2.631h-8.897
				V81.729z"/>
			<path id="S_7_" fill="#FFFFFF" d="M129.717,74.658c0,0.486,0.748,0.615,1.616,0.765c3.505,0.636,9.407,0.061,9.407,5.118
				c0,2.61-2.46,4.288-7.811,4.288c-2.085,0-3.912-0.383-5.012-0.955v0.572h-2.934v-5.328h2.934v0.763
				c0,1.763,3.118,2.188,5.372,2.188c1.251,0,3.057-0.32,3.057-1.233c0-1.294-1.77-1.002-5.032-1.423
				c-1.569-0.21-5.949-1.018-5.949-4.309c0-3.589,4.081-4.502,6.968-4.502c1.955,0,4.292,0.702,5.331,1.422v-1.04h2.927v5.118
				h-2.927v-0.763c0-1.383-2.866-1.977-4.821-1.977C130.542,73.361,129.717,73.567,129.717,74.658z"/>
			<path id="H_1_" fill="#FFFFFF" d="M145.613,81.729h2.207v-8.068h-2.207v-2.442h8.896v2.442h-2.295v2.737h7.328v-2.737h-2.214
				v-2.442h8.898v2.442h-2.291v8.068h2.291v2.631h-8.898v-2.631h2.214v-2.887h-7.328v2.887h2.295v2.631h-8.896V81.729z"/>
			<path id="I_4_" fill="#FFFFFF" d="M170.313,81.729h2.207v-8.068h-2.207v-2.442h8.896v2.442h-2.289v8.068h2.289v2.631h-8.896
				V81.729z"/>
			<path id="N_3_" fill="#FFFFFF" d="M182.504,81.729h2.208v-8.068h-2.208v-2.442h6.433l7.497,6.9v-4.458h-2.208v-2.442h7.879v2.442
				h-2.296v10.7l-2.775-0.002l-8.946-8.022v5.393h2.295v2.631h-7.878V81.729z"/>
			<path id="G_3_" fill="#FFFFFF" d="M215.616,70.815c2.166,0,4.523,0.784,5.732,1.528v-1.147h2.953v6.308h-2.953v-0.766
				c0-1.783-2.567-3.183-5.501-3.183c-3.247,0-5.691,1.294-5.691,4.159c0,2.995,2.718,4.333,5.671,4.333
				c2.167,0,3.653-0.553,4.142-1.616h-2.717V77.99h7.132v6.31h-2.485l-0.761-1.042c-1.338,0.893-3.273,1.337-5.501,1.337
				c-6.499,0-10.662-1.847-10.662-6.88C204.975,73.087,209.715,70.815,215.616,70.815z"/>
		</g>
		<g id="_x31__стррчка_1_">
			<path id="K_1_" fill="#FFFFFF" d="M31.47,60.583h1.98v-7.232h-1.98v-2.191h7.521v2.191h-1.598v3.121l3.521-3.2v-2.112h5.923
				v2.191h-2.172l-3.79,3.368l4.57,3.864h2.302v2.363h-4.93l-4.415-4.038l-1.009,0.895v0.781h1.598v2.363H31.47V60.583z"/>
			<path id="I_3_" fill="#FFFFFF" d="M50.318,60.583h1.98v-7.232h-1.98v-2.191h7.978v2.191H56.24v7.232h2.056v2.363h-7.978V60.583z"
				/>
			<path id="N_2_" fill="#FFFFFF" d="M61.243,60.583h1.98v-7.232h-1.98v-2.191h5.768l6.723,6.188v-3.997h-1.979v-2.191h7.065v2.191
				h-2.057v9.595l-2.495-0.006l-8.016-7.192v4.835h2.056v2.363h-7.064V60.583z"/>
			<path id="G_2_" fill="#FFFFFF" d="M90.136,50.799c1.941,0,4.054,0.705,5.142,1.369v-1.027h2.644v5.654h-2.644v-0.684
				c0-1.6-2.303-2.858-4.933-2.858c-2.91,0-5.098,1.164-5.098,3.731c0,2.686,2.435,3.883,5.08,3.883
				c1.941,0,3.276-0.493,3.712-1.445h-2.435v-2.188h6.394v5.654h-2.226l-0.683-0.934c-1.201,0.801-2.934,1.199-4.933,1.199
				c-5.825,0-9.557-1.657-9.557-6.17C80.598,52.835,84.848,50.799,90.136,50.799z"/>
			<path id="_x2E__1_" fill="#FFFFFF" d="M103.689,49.829c1.373,0,2.916,0.894,2.897,2.112c0,0.781-0.095,1.217-0.551,1.865
				c-0.594,0.838-1.354,1.256-2.688,1.942l-1.367-1.274c0.588-0.288,0.949-0.439,1.196-0.572c-1.177-0.17-2.169-0.914-2.169-1.96
				C101.008,50.761,102.247,49.829,103.689,49.829z"/>
			<path id="S_6_" fill="#FFFFFF" d="M114.219,54.242c0,0.44,0.665,0.554,1.448,0.687c3.138,0.572,8.431,0.057,8.431,4.588
				c0,2.34-2.207,3.845-7.001,3.845c-1.871,0-3.503-0.342-4.497-0.856v0.515h-2.625v-4.778h2.625v0.683
				c0,1.582,2.801,1.964,4.819,1.964c1.12,0,2.739-0.288,2.739-1.106c0-1.161-1.584-0.898-4.51-1.274
				c-1.41-0.19-5.331-0.914-5.331-3.865c0-3.219,3.655-4.034,6.242-4.034c1.752,0,3.845,0.626,4.781,1.274v-0.933h2.625v4.588
				h-2.625v-0.686c0-1.237-2.574-1.771-4.32-1.771C114.956,53.082,114.219,53.269,114.219,54.242z"/>
			<path id="C_1_" fill="#FFFFFF" d="M142.19,50.799c1.941,0,3.864,0.705,4.952,1.369v-1.027h2.644v5.654h-2.644v-0.684
				c0-1.6-2.303-2.858-4.934-2.858c-2.89,0-4.87,1.144-4.87,3.731c0,2.704,2.227,3.883,4.852,3.883c2.358,0,4.187-0.778,4.952-2.625
				h2.758c0,1.923-1.809,4.911-7.691,4.911c-5.825,0-9.518-1.675-9.518-6.17C132.691,52.854,136.878,50.799,142.19,50.799z"/>
			<path id="R_1_" fill="#FFFFFF" d="M167.317,54.322c0,2.207-1.694,3.044-3.655,3.386l2.764,2.875h2.094v2.363h-4.952l-4.244-5.028
				h-0.931v2.665h2.132v2.363h-7.976v-2.363h1.904v-7.232h-1.985v-2.191h9.177C164.621,51.159,167.317,51.49,167.317,54.322z
				 M160.164,55.919c2.777,0,3.118-0.266,3.118-1.294c0-1.202-0.778-1.236-1.771-1.274c-0.227,0-0.436-0.022-0.683-0.022
				c-0.82,0-1.619,0.022-2.436,0.022v2.568H160.164z"/>
			<path id="O_1_" fill="#FFFFFF" d="M179.804,50.799c5.307,0,9.519,2.055,9.519,6.185c0,4.495-3.675,6.17-9.5,6.17
				c-5.824,0-9.518-1.675-9.518-6.17C170.305,52.854,174.491,50.799,179.804,50.799z M179.804,60.867
				c2.947,0,4.889-1.198,4.889-3.883c0-2.454-2.017-3.731-4.87-3.731c-2.896,0-4.876,1.144-4.876,3.731
				C174.946,59.688,177.173,60.867,179.804,60.867z"/>
			<path id="S_5_" fill="#FFFFFF" d="M196.134,54.242c0,0.44,0.671,0.554,1.448,0.687c3.144,0.572,8.437,0.057,8.437,4.588
				c0,2.34-2.213,3.845-7.008,3.845c-1.865,0-3.503-0.342-4.495-0.856v0.515h-2.626v-4.778h2.626v0.683
				c0,1.582,2.801,1.964,4.818,1.964c1.126,0,2.739-0.288,2.739-1.106c0-1.161-1.585-0.898-4.51-1.274
				c-1.41-0.19-5.332-0.914-5.332-3.865c0-3.219,3.655-4.034,6.248-4.034c1.747,0,3.845,0.626,4.776,1.274v-0.933h2.625v4.588
				h-2.625v-0.686c0-1.237-2.568-1.771-4.32-1.771C196.87,53.082,196.134,53.269,196.134,54.242z"/>
			<path id="S_4_" fill="#FFFFFF" d="M213.998,54.242c0,0.44,0.664,0.554,1.449,0.687c3.137,0.572,8.431,0.057,8.431,4.588
				c0,2.34-2.208,3.845-7.003,3.845c-1.865,0-3.503-0.342-4.496-0.856v0.515h-2.625v-4.778h2.625v0.683
				c0,1.582,2.802,1.964,4.819,1.964c1.121,0,2.739-0.288,2.739-1.106c0-1.161-1.586-0.898-4.51-1.274
				c-1.41-0.19-5.332-0.914-5.332-3.865c0-3.219,3.656-4.034,6.243-4.034c1.751,0,3.845,0.626,4.781,1.274v-0.933h2.624v4.588
				h-2.624v-0.686c0-1.237-2.574-1.771-4.32-1.771C214.734,53.082,213.998,53.269,213.998,54.242z"/>
		</g>
	</g>
	<g id="линии_1_" display="inline">
		<rect id="_x31__4_" x="31.418" y="35.468" fill="#FFFFFF" width="192.733" height="2.361"/>
		<rect id="_x32__1_" x="31.418" y="32.321" fill="#FFFFFF" width="192.733" height="0.789"/>
		<rect id="_x33__2_" x="31.418" y="95.996" fill="#FFFFFF" width="192.733" height="2.359"/>
		<rect id="_x34__2_" x="31.418" y="100.716" fill="#FFFFFF" width="192.733" height="0.785"/>
	</g>
	<g id="корона_copy" display="inline">
		<circle fill="#FFFFFF" stroke="#E11D1E" stroke-width="7" stroke-miterlimit="10" cx="127.779" cy="32.008" r="14.949"/>
		<rect id="_x31__1_" x="120.036" y="35.479" fill="#E11D1E" width="15.493" height="2.361"/>
		<polygon fill="#E11D1E" points="127.784,26.091 123.817,31.915 120.03,26.091 120.03,33.632 127.784,33.632 127.776,33.632 
			135.528,33.632 135.528,26.091 131.742,31.915 127.776,26.091 		"/>
	</g>
</g>
<g id="Layer_6">
	<g>
		<path fill="#FFFFFF" d="M47.948,74.744c0,3.586-4.142,4.014-8.071,4.014h-1.889v2.972h2.377v2.631h-8.897v-2.631h2.123v-8.068
			h-2.208v-2.442h10.235C44.938,71.218,47.948,71.586,47.948,74.744z M39.962,76.527c3.101,0,3.484-0.299,3.484-1.444
			c0-1.338-0.869-1.422-1.976-1.422h-3.481v2.866H39.962z"/>
		<path fill="#FFFFFF" d="M49.669,71.218h8.896v2.442h-2.291v6.03c0,1.592,1.061,2.313,3.587,2.313c1.888,0,3.736,0,3.736-2.335
			v-6.007H61.39v-2.442h7.878v2.442h-2.295V80.2c0,1.984-1.659,4.586-7.222,4.586c-5.537,0-7.875-2.62-7.875-4.586v-6.539h-2.208
			V71.218z"/>
		<path fill="#FFFFFF" d="M88.342,74.744c0,0.869-0.38,1.549-0.998,2.079c1.404,0.553,2.274,1.596,2.274,3.463
			c0,3.714-4.224,4.075-8.068,4.075h-9.772v-2.631h2.208v-8.068h-2.208v-2.442h10.235C85.332,71.218,88.342,71.586,88.342,74.744z
			 M83.249,76.228c0.318-0.105,0.591-0.401,0.591-1.145c0-1.338-0.869-1.422-1.976-1.422h-3.478v2.567H83.249z M81.633,81.729
			c2.717,0,3.226-0.383,3.226-1.443c0-1.444-0.679-1.636-3.479-1.636h-2.994v3.08H81.633z"/>
		<polygon fill="#FFFFFF" points="92.916,81.729 95.123,81.729 95.123,73.661 92.916,73.661 92.916,71.218 101.813,71.218 
			101.813,73.661 99.518,73.661 99.518,81.729 106.567,81.729 106.567,79.244 109.495,79.244 109.495,84.36 92.916,84.36 		"/>
		<polygon fill="#FFFFFF" points="111.221,81.729 113.429,81.729 113.429,73.661 111.221,73.661 111.221,71.218 120.118,71.218 
			120.118,73.661 117.823,73.661 117.823,81.729 120.118,81.729 120.118,84.36 111.221,84.36 		"/>
		<path fill="#FFFFFF" d="M129.717,74.658c0,0.486,0.748,0.615,1.616,0.765c3.505,0.636,9.407,0.061,9.407,5.118
			c0,2.61-2.46,4.288-7.811,4.288c-2.085,0-3.912-0.383-5.012-0.955v0.572h-2.934v-5.328h2.934v0.763
			c0,1.763,3.118,2.188,5.372,2.188c1.251,0,3.057-0.32,3.057-1.233c0-1.294-1.77-1.002-5.032-1.423
			c-1.569-0.21-5.949-1.018-5.949-4.309c0-3.589,4.081-4.502,6.968-4.502c1.955,0,4.292,0.702,5.331,1.422v-1.04h2.927v5.118h-2.927
			v-0.763c0-1.383-2.866-1.977-4.821-1.977C130.542,73.361,129.717,73.567,129.717,74.658z"/>
		<polygon fill="#FFFFFF" points="145.613,81.729 147.82,81.729 147.82,73.661 145.613,73.661 145.613,71.218 154.51,71.218 
			154.51,73.661 152.215,73.661 152.215,76.398 159.543,76.398 159.543,73.661 157.329,73.661 157.329,71.218 166.228,71.218 
			166.228,73.661 163.937,73.661 163.937,81.729 166.228,81.729 166.228,84.36 157.329,84.36 157.329,81.729 159.543,81.729 
			159.543,78.842 152.215,78.842 152.215,81.729 154.51,81.729 154.51,84.36 145.613,84.36 		"/>
		<polygon fill="#FFFFFF" points="170.313,81.729 172.52,81.729 172.52,73.661 170.313,73.661 170.313,71.218 179.209,71.218 
			179.209,73.661 176.92,73.661 176.92,81.729 179.209,81.729 179.209,84.36 170.313,84.36 		"/>
		<polygon fill="#FFFFFF" points="182.504,81.729 184.712,81.729 184.712,73.661 182.504,73.661 182.504,71.218 188.937,71.218 
			196.434,78.119 196.434,73.661 194.226,73.661 194.226,71.218 202.104,71.218 202.104,73.661 199.809,73.661 199.809,84.36 
			197.033,84.358 188.087,76.336 188.087,81.729 190.382,81.729 190.382,84.36 182.504,84.36 		"/>
		<path fill="#FFFFFF" d="M215.616,70.815c2.166,0,4.523,0.784,5.732,1.528v-1.147h2.953v6.308h-2.953v-0.766
			c0-1.783-2.567-3.183-5.501-3.183c-3.247,0-5.691,1.294-5.691,4.159c0,2.995,2.718,4.333,5.671,4.333
			c2.167,0,3.653-0.553,4.142-1.616h-2.717V77.99h7.132v6.31h-2.485l-0.761-1.042c-1.338,0.893-3.273,1.337-5.501,1.337
			c-6.499,0-10.662-1.847-10.662-6.88C204.975,73.087,209.715,70.815,215.616,70.815z"/>
		<polygon fill="#FFFFFF" points="31.47,60.583 33.45,60.583 33.45,53.351 31.47,53.351 31.47,51.159 38.991,51.159 38.991,53.351 
			37.393,53.351 37.393,56.472 40.913,53.271 40.913,51.159 46.836,51.159 46.836,53.351 44.664,53.351 40.875,56.718 
			45.445,60.583 47.747,60.583 47.747,62.945 42.817,62.945 38.402,58.907 37.393,59.802 37.393,60.583 38.991,60.583 
			38.991,62.945 31.47,62.945 		"/>
		<polygon fill="#FFFFFF" points="50.318,60.583 52.298,60.583 52.298,53.351 50.318,53.351 50.318,51.159 58.296,51.159 
			58.296,53.351 56.24,53.351 56.24,60.583 58.296,60.583 58.296,62.945 50.318,62.945 		"/>
		<polygon fill="#FFFFFF" points="61.243,60.583 63.224,60.583 63.224,53.351 61.243,53.351 61.243,51.159 67.011,51.159 
			73.734,57.348 73.734,53.351 71.754,53.351 71.754,51.159 78.819,51.159 78.819,53.351 76.763,53.351 76.763,62.945 
			74.268,62.939 66.252,55.748 66.252,60.583 68.308,60.583 68.308,62.945 61.243,62.945 		"/>
		<path fill="#FFFFFF" d="M90.136,50.799c1.941,0,4.054,0.705,5.142,1.369v-1.027h2.644v5.654h-2.644v-0.684
			c0-1.6-2.303-2.858-4.933-2.858c-2.91,0-5.098,1.164-5.098,3.731c0,2.686,2.435,3.883,5.08,3.883c1.941,0,3.276-0.493,3.712-1.445
			h-2.435v-2.188h6.394v5.654h-2.226l-0.683-0.934c-1.201,0.801-2.934,1.199-4.933,1.199c-5.825,0-9.557-1.657-9.557-6.17
			C80.598,52.835,84.848,50.799,90.136,50.799z"/>
		<path fill="#FFFFFF" d="M103.689,49.829c1.373,0,2.916,0.894,2.897,2.112c0,0.781-0.095,1.217-0.551,1.865
			c-0.594,0.838-1.354,1.256-2.688,1.942l-1.367-1.274c0.588-0.288,0.949-0.439,1.196-0.572c-1.177-0.17-2.169-0.914-2.169-1.96
			C101.008,50.761,102.247,49.829,103.689,49.829z"/>
		<path fill="#FFFFFF" d="M114.219,54.242c0,0.44,0.665,0.554,1.448,0.687c3.138,0.572,8.431,0.057,8.431,4.588
			c0,2.34-2.207,3.845-7.001,3.845c-1.871,0-3.503-0.342-4.497-0.856v0.515h-2.625v-4.778h2.625v0.683
			c0,1.582,2.801,1.964,4.819,1.964c1.12,0,2.739-0.288,2.739-1.106c0-1.161-1.584-0.898-4.51-1.274
			c-1.41-0.19-5.331-0.914-5.331-3.865c0-3.219,3.655-4.034,6.242-4.034c1.752,0,3.845,0.626,4.781,1.274v-0.933h2.625v4.588h-2.625
			v-0.686c0-1.237-2.574-1.771-4.32-1.771C114.956,53.082,114.219,53.269,114.219,54.242z"/>
		<path fill="#FFFFFF" d="M142.19,50.799c1.941,0,3.864,0.705,4.952,1.369v-1.027h2.644v5.654h-2.644v-0.684
			c0-1.6-2.303-2.858-4.934-2.858c-2.89,0-4.87,1.144-4.87,3.731c0,2.704,2.227,3.883,4.852,3.883c2.358,0,4.187-0.778,4.952-2.625
			h2.758c0,1.923-1.809,4.911-7.691,4.911c-5.825,0-9.518-1.675-9.518-6.17C132.691,52.854,136.878,50.799,142.19,50.799z"/>
		<path fill="#FFFFFF" d="M167.317,54.322c0,2.207-1.694,3.044-3.655,3.386l2.764,2.875h2.094v2.363h-4.952l-4.244-5.028h-0.931
			v2.665h2.132v2.363h-7.976v-2.363h1.904v-7.232h-1.985v-2.191h9.177C164.621,51.159,167.317,51.49,167.317,54.322z
			 M160.164,55.919c2.777,0,3.118-0.266,3.118-1.294c0-1.202-0.778-1.236-1.771-1.274c-0.227,0-0.436-0.022-0.683-0.022
			c-0.82,0-1.619,0.022-2.436,0.022v2.568H160.164z"/>
		<path fill="#FFFFFF" d="M179.804,50.799c5.307,0,9.519,2.055,9.519,6.185c0,4.495-3.675,6.17-9.5,6.17
			c-5.824,0-9.518-1.675-9.518-6.17C170.305,52.854,174.491,50.799,179.804,50.799z M179.804,60.867
			c2.947,0,4.889-1.198,4.889-3.883c0-2.454-2.017-3.731-4.87-3.731c-2.896,0-4.876,1.144-4.876,3.731
			C174.946,59.688,177.173,60.867,179.804,60.867z"/>
		<path fill="#FFFFFF" d="M196.134,54.242c0,0.44,0.671,0.554,1.448,0.687c3.144,0.572,8.437,0.057,8.437,4.588
			c0,2.34-2.213,3.845-7.008,3.845c-1.865,0-3.503-0.342-4.495-0.856v0.515h-2.626v-4.778h2.626v0.683
			c0,1.582,2.801,1.964,4.818,1.964c1.126,0,2.739-0.288,2.739-1.106c0-1.161-1.585-0.898-4.51-1.274
			c-1.41-0.19-5.332-0.914-5.332-3.865c0-3.219,3.655-4.034,6.248-4.034c1.747,0,3.845,0.626,4.776,1.274v-0.933h2.625v4.588h-2.625
			v-0.686c0-1.237-2.568-1.771-4.32-1.771C196.87,53.082,196.134,53.269,196.134,54.242z"/>
		<path fill="#FFFFFF" d="M213.998,54.242c0,0.44,0.664,0.554,1.449,0.687c3.137,0.572,8.431,0.057,8.431,4.588
			c0,2.34-2.208,3.845-7.003,3.845c-1.865,0-3.503-0.342-4.496-0.856v0.515h-2.625v-4.778h2.625v0.683
			c0,1.582,2.802,1.964,4.819,1.964c1.121,0,2.739-0.288,2.739-1.106c0-1.161-1.586-0.898-4.51-1.274
			c-1.41-0.19-5.332-0.914-5.332-3.865c0-3.219,3.656-4.034,6.243-4.034c1.751,0,3.845,0.626,4.781,1.274v-0.933h2.624v4.588h-2.624
			v-0.686c0-1.237-2.574-1.771-4.32-1.771C214.734,53.082,213.998,53.269,213.998,54.242z"/>
		<rect x="31.418" y="35.468" fill="#FFFFFF" width="192.733" height="2.361"/>
		<rect x="31.418" y="32.321" fill="#FFFFFF" width="192.733" height="0.789"/>
		<rect x="31.418" y="95.996" fill="#FFFFFF" width="192.733" height="2.359"/>
		<rect x="31.418" y="100.716" fill="#FFFFFF" width="192.733" height="0.785"/>
		<circle fill="#FFFFFF" cx="127.779" cy="32.008" r="14.949"/>
		<path fill="#E11D1E" d="M142.729,32.008h-3.5c-0.002,3.172-1.276,6.011-3.354,8.094c-2.083,2.077-4.925,3.351-8.098,3.353
			c-3.172-0.002-6.012-1.275-8.094-3.353c-2.077-2.082-3.35-4.921-3.352-8.094c0.002-3.173,1.275-6.012,3.352-8.094
			c2.083-2.077,4.922-3.35,8.094-3.352c3.173,0.001,6.015,1.276,8.098,3.353c2.078,2.083,3.353,4.922,3.354,8.094H142.729h3.5
			c0.002-5.084-2.072-9.718-5.406-13.044c-3.328-3.333-7.963-5.404-13.046-5.402c-5.083-0.002-9.717,2.07-13.044,5.402
			c-3.333,3.327-5.404,7.961-5.402,13.044c-0.002,5.083,2.07,9.717,5.402,13.044c3.327,3.333,7.961,5.405,13.044,5.403
			c5.083,0.001,9.718-2.069,13.046-5.402c3.334-3.327,5.408-7.961,5.406-13.045H142.729z"/>
		<rect x="120.036" y="35.479" fill="#E11D1E" width="15.493" height="2.361"/>
		<polygon fill="#E11D1E" points="127.784,26.091 123.817,31.915 120.03,26.091 120.03,33.632 127.784,33.632 127.776,33.632 
			135.528,33.632 135.528,26.091 131.742,31.915 127.776,26.091 		"/>
	</g>
</g>
</svg>
